<svg width="16" height="16" viewBox="0 0 16 16" fill="none" xmlns="http://www.w3.org/2000/svg">
<path d="M12.3666 8.5003C12.3891 10.9216 14.4907 11.7274 14.514 11.7376C14.4962 11.7945 14.1782 12.8859 13.4068 14.0133C12.7399 14.988 12.0478 15.9591 10.9575 15.9792C9.88612 15.9989 9.54163 15.3439 8.31679 15.3439C7.09232 15.3439 6.70958 15.9591 5.69544 15.9989C4.64302 16.0388 3.84161 14.945 3.1692 13.9738C1.7952 11.9874 0.745178 8.36062 2.15509 5.91249C2.8555 4.69674 4.1072 3.92687 5.4658 3.90713C6.49925 3.88741 7.4747 4.6024 8.10646 4.6024C8.73782 4.6024 9.92321 3.74257 11.1694 3.86884C11.691 3.89056 13.1554 4.07957 14.0957 5.45595C14.0199 5.50291 12.3484 6.47599 12.3666 8.5003ZM10.3531 2.55464C10.9119 1.87831 11.2879 0.936799 11.1854 0C10.38 0.0323689 9.40609 0.536681 8.82842 1.21264C8.3107 1.81123 7.8573 2.76931 7.97964 3.68757C8.87733 3.75702 9.79438 3.2314 10.3531 2.55464Z" fill="white"/>
</svg>
