<svg width="16" height="16" viewBox="0 0 16 16" fill="none" xmlns="http://www.w3.org/2000/svg">
<path d="M4.34522 16C4.57539 16 4.77792 15.9079 4.9436 15.7514L12.2348 8.6168C12.4097 8.44189 12.5017 8.23013 12.5017 8C12.5017 7.76063 12.4097 7.53969 12.2348 7.38321L4.9436 0.257748C4.78711 0.0920694 4.57539 0 4.34522 0C3.86653 0 3.49829 0.368239 3.49829 0.84693C3.49829 1.06787 3.59955 1.28886 3.74681 1.44534L10.4396 8L3.74681 14.5547C3.59955 14.7111 3.49829 14.9229 3.49829 15.153C3.49829 15.6318 3.86653 16 4.34522 16Z" fill="white"/>
</svg>
