<svg width="16" height="16" viewBox="0 0 16 16" fill="none" xmlns="http://www.w3.org/2000/svg">
<path d="M2.51958 15.3862H13.4805C15.1576 15.3862 16 14.5517 16 12.8987V3.10129C16 1.44834 15.1576 0.613831 13.4805 0.613831H2.51958C0.850563 0.613831 0 1.44029 0 3.10129V12.8987C0 14.5597 0.850563 15.3862 2.51958 15.3862ZM2.40725 14.0943C1.69308 14.0943 1.2919 13.7172 1.2919 12.9709V5.40422C1.2919 4.66599 1.69308 4.28083 2.40725 4.28083H13.5848C14.2989 4.28083 14.7082 4.66599 14.7082 5.40422V12.9709C14.7082 13.7172 14.2989 14.0943 13.5848 14.0943H2.40725ZM6.42733 7.1615H6.90074C7.18158 7.1615 7.27786 7.08125 7.27786 6.80041V6.32699C7.27786 6.04615 7.18158 5.95789 6.90074 5.95789H6.42733C6.14645 5.95789 6.05819 6.04615 6.05819 6.32699V6.80041C6.05819 7.08125 6.14645 7.1615 6.42733 7.1615ZM9.09936 7.1615H9.56473C9.85361 7.1615 9.94188 7.08125 9.94188 6.80041V6.32699C9.94188 6.04615 9.85361 5.95789 9.56473 5.95789H9.09936C8.81848 5.95789 8.72221 6.04615 8.72221 6.32699V6.80041C8.72221 7.08125 8.81848 7.1615 9.09936 7.1615ZM11.7633 7.1615H12.2368C12.5176 7.1615 12.6139 7.08125 12.6139 6.80041V6.32699C12.6139 6.04615 12.5176 5.95789 12.2368 5.95789H11.7633C11.4825 5.95789 11.3862 6.04615 11.3862 6.32699V6.80041C11.3862 7.08125 11.4825 7.1615 11.7633 7.1615ZM3.76331 9.78539H4.23673C4.51757 9.78539 4.61387 9.70514 4.61387 9.4243V8.95088C4.61387 8.67005 4.51757 8.5898 4.23673 8.5898H3.76331C3.48247 8.5898 3.38616 8.67005 3.38616 8.95088V9.4243C3.38616 9.70514 3.48247 9.78539 3.76331 9.78539ZM6.42733 9.78539H6.90074C7.18158 9.78539 7.27786 9.70514 7.27786 9.4243V8.95088C7.27786 8.67005 7.18158 8.5898 6.90074 8.5898H6.42733C6.14645 8.5898 6.05819 8.67005 6.05819 8.95088V9.4243C6.05819 9.70514 6.14645 9.78539 6.42733 9.78539ZM9.09936 9.78539H9.56473C9.85361 9.78539 9.94188 9.70514 9.94188 9.4243V8.95088C9.94188 8.67005 9.85361 8.5898 9.56473 8.5898H9.09936C8.81848 8.5898 8.72221 8.67005 8.72221 8.95088V9.4243C8.72221 9.70514 8.81848 9.78539 9.09936 9.78539ZM11.7633 9.78539H12.2368C12.5176 9.78539 12.6139 9.70514 12.6139 9.4243V8.95088C12.6139 8.67005 12.5176 8.5898 12.2368 8.5898H11.7633C11.4825 8.5898 11.3862 8.67005 11.3862 8.95088V9.4243C11.3862 9.70514 11.4825 9.78539 11.7633 9.78539ZM3.76331 12.4173H4.23673C4.51757 12.4173 4.61387 12.329 4.61387 12.0482V11.5747C4.61387 11.2939 4.51757 11.2137 4.23673 11.2137H3.76331C3.48247 11.2137 3.38616 11.2939 3.38616 11.5747V12.0482C3.38616 12.329 3.48247 12.4173 3.76331 12.4173ZM6.42733 12.4173H6.90074C7.18158 12.4173 7.27786 12.329 7.27786 12.0482V11.5747C7.27786 11.2939 7.18158 11.2137 6.90074 11.2137H6.42733C6.14645 11.2137 6.05819 11.2939 6.05819 11.5747V12.0482C6.05819 12.329 6.14645 12.4173 6.42733 12.4173ZM9.09936 12.4173H9.56473C9.85361 12.4173 9.94188 12.329 9.94188 12.0482V11.5747C9.94188 11.2939 9.85361 11.2137 9.56473 11.2137H9.09936C8.81848 11.2137 8.72221 11.2939 8.72221 11.5747V12.0482C8.72221 12.329 8.81848 12.4173 9.09936 12.4173Z" fill="#9A9A9A"/>
</svg>
