<svg width="16" height="16" viewBox="0 0 16 16" fill="none" xmlns="http://www.w3.org/2000/svg">
<path d="M7.99997 16C12.3686 16 16 12.3765 16 8C16 3.63138 12.3608 0 7.99214 0C3.61565 0 0 3.63138 0 8C0 12.3765 3.62351 16 7.99997 16ZM7.99997 14.6667C4.29801 14.6667 1.34114 11.702 1.34114 8C1.34114 4.30588 4.29018 1.33334 7.99214 1.33334C11.6862 1.33334 14.6588 4.30588 14.6667 8C14.6745 11.702 11.6941 14.6667 7.99997 14.6667ZM3.89019 8.84704H7.99214C8.298 8.84704 8.54115 8.61175 8.54115 8.29803V3.01176C8.54115 2.7059 8.298 2.47061 7.99214 2.47061C7.68624 2.47061 7.45096 2.7059 7.45096 3.01176V7.75685H3.89019C3.58429 7.75685 3.34897 7.99217 3.34897 8.29803C3.34897 8.61175 3.58429 8.84704 3.89019 8.84704Z" fill="#9A9A9A"/>
</svg>
