<svg width="16" height="16" viewBox="0 0 16 16" fill="none" xmlns="http://www.w3.org/2000/svg">
<path d="M11.0674 15.7513C11.224 15.9079 11.4266 16 11.6661 16C12.1451 16 12.5043 15.6407 12.5043 15.1617C12.5043 14.9315 12.4122 14.7196 12.2648 14.563L5.55905 8.0046L12.2648 1.44617C12.4122 1.2896 12.5043 1.06853 12.5043 0.847417C12.5043 0.368451 12.1451 0 11.6661 0C11.4266 0 11.224 0.0921226 11.0674 0.248699L3.77206 7.38745C3.59705 7.53483 3.49573 7.7651 3.49573 8.0046C3.49573 8.23487 3.59705 8.44674 3.77206 8.62175L11.0674 15.7513Z" fill="#999999"/>
</svg>
