<svg width="16" height="16" viewBox="0 0 16 16" fill="none" xmlns="http://www.w3.org/2000/svg">
<path d="M3.3198 16H5.54939C6.41372 16 6.85572 15.5482 6.85572 14.6839V1.30629C6.85572 0.412492 6.41372 0 5.54939 0H3.3198C2.45546 0 2.00366 0.451801 2.00366 1.30629V14.6839C2.00366 15.5482 2.45546 16 3.3198 16ZM10.4506 16H12.6801C13.5445 16 13.9963 15.5482 13.9963 14.6839V1.30629C13.9963 0.412492 13.5445 0 12.6801 0H10.4506C9.58627 0 9.14427 0.451801 9.14427 1.30629V14.6839C9.14427 15.5482 9.58627 16 10.4506 16Z" fill="white"/>
</svg>
