<svg width="16" height="16" viewBox="0 0 16 16" fill="none" xmlns="http://www.w3.org/2000/svg">
<path d="M8.00375 8.00755C9.80287 8.00755 11.2694 6.40497 11.2694 4.45464C11.2694 2.51943 9.818 1 8.00375 1C6.21216 1 4.73808 2.54968 4.73808 4.46976C4.74563 6.41255 6.21216 8.00755 8.00375 8.00755ZM8.00375 6.8661C6.90006 6.8661 5.95513 5.80777 5.95513 4.46976C5.95513 3.15443 6.88497 2.14148 8.00375 2.14148C9.13768 2.14148 10.0524 3.13931 10.0524 4.45464C10.0524 5.79267 9.12255 6.8661 8.00375 6.8661ZM3.25646 15H12.7511C14.0059 15 14.6031 14.6221 14.6031 13.7905C14.6031 11.8099 12.1085 8.94493 8.00375 8.94493C3.89901 8.94493 1.39685 11.8099 1.39685 13.7905C1.39685 14.6221 1.99402 15 3.25646 15ZM2.89357 13.8586C2.69705 13.8586 2.6139 13.8056 2.6139 13.6469C2.6139 12.4071 4.53398 10.0864 8.00375 10.0864C11.4735 10.0864 13.386 12.4071 13.386 13.6469C13.386 13.8056 13.3104 13.8586 13.1139 13.8586H2.89357Z" fill="white"/>
</svg>
